<svg width="38" height="38" viewBox="0 0 38 38" fill="none" xmlns="http://www.w3.org/2000/svg"><path d="M2.375 9.038h7.774v2.31H2.375v-2.31zm0-4.288h7.774v2.309H2.375V4.75zm13.947 8.543H2.375v2.31h13.424c1.47 0 4.9.032 6.173 2.11v-1.286c-.62-2.045-2.45-3.134-5.65-3.134zm.032 4.289H2.375v2.309h13.424c3.266 0 5.324.132 6.173.593v-1.022c-.653-1.616-3.397-1.88-5.618-1.88zm-.032 10.885H2.375v-2.31h13.424c1.47 0 4.9-.032 6.173-2.11v1.286c-.62 2.046-2.45 3.134-5.65 3.134zm.032-4.288H2.375v-2.31h13.424c3.266 0 5.324-.131 6.173-.593v1.023c-.653 1.616-3.397 1.88-5.618 1.88zm9.015 8.28h10.256v-1.42h-9.962c-.882 0-2.972-.032-3.723-1.253v.792c.359 1.22 1.47 1.88 3.43 1.88zm-.032-2.607h10.255v-1.418h-9.929c-1.992 0-3.234-.066-3.724-.363v.627c.392.99 2.058 1.154 3.397 1.154z" fill="#272727"/></svg>