<svg width="38" height="38" viewBox="0 0 38 38" fill="none" xmlns="http://www.w3.org/2000/svg"><path d="M34.262 17.594h.002a2 2 0 01-.002 2.8l-13.86 13.867a1.998 1.998 0 01-2.802-.001L3.74 20.395a2 2 0 010-2.8L13.5 7.83l3.234 3.234a2.61 2.61 0 00-.374 1.332c0 1.227.845 2.251 1.98 2.546v8.106a2.637 2.637 0 00-1.98 2.546 2.643 2.643 0 002.64 2.64 2.643 2.643 0 002.64-2.64c0-1.227-.844-2.25-1.98-2.546v-8.106a2.6 2.6 0 00.657-.271l3.009 3.008a2.608 2.608 0 00-.365 1.316 2.643 2.643 0 002.64 2.64 2.643 2.643 0 002.64-2.64 2.643 2.643 0 00-2.64-2.64c-.495 0-.953.146-1.35.384l-2.994-2.994a2.61 2.61 0 00.384-1.349A2.643 2.643 0 0019 9.757c-.489 0-.94.143-1.334.375l-3.234-3.234 3.168-3.17c.745-.748 2.054-.748 2.802 0l13.86 13.866z" fill="#272727"/></svg>