<svg width="38" height="38" viewBox="0 0 38 38" fill="none" xmlns="http://www.w3.org/2000/svg"><path d="M23.473 30.754l.98-1.719s-2.226.938-5.952.938c-3.728 0-5.921-.901-5.921-.901l1.096 1.876.389 5.913c0 .64 2.026 1.139 4.527 1.139 2.503 0 4.53-.498 4.53-1.139l.354-6.081v-.026h-.003zm.948-11.174c-1.186.073-1.778 1.432-2.373 2.863-.22.523-.971 2.755-1.462 2.479-.49-.275.637-2.108.955-3.2-.366.277-1.704 1.347-2.05.342-.552.498-1.74.761-1.607-.522-.294.547-.957 1.305-1.756.974-1.038-.405.61-3.824 1.018-3.659.41.192-.082.952-.21 1.26-.287.664-.614 1.519-.393 1.685.37.308 1.394-1.115 1.417-1.14.191-.262.739-1.949 1.177-1.756.44.213-1.097 2.444-.525 2.896.118.095.591-.047.878-.379.185-.19.12-.666.739-2.185.623-1.52 1.178-3.42 1.602-3.277.424.143.075 1.115-.079 1.496-.715 1.71-1.955 4.51-1.372 4.298.576-.214.877-.214 1.454-.903.576-.688.532-1.827.924-1.803.37.022.323.403.23.663.37-.428 1.777-1.377 2.103-.45.391 1.09-2.011 2.683-1.41 2.588.578-.072 1.524-.689 1.94-1.258l1.109-10.308s-1.132.952-8.267.952-8.148-.926-8.148-.926l.945 9.404c.509-1.472 1.708-4.463 3.58-4.346.855.048 2.01 1.76 1.015 1.807-.416.023-.462-.855-.947-.974-.368-.073-.854.214-1.176.547-.623.64-2.011 3.181-1.826 4.442.231 1.614 2.17-.549 2.493-1.19.23-.448.392-1.804.876-1.661.51.142-.044 1.544-.416 2.754-.416 1.378-.623 2.825-1.129 2.658-.509-.165.322-1.946.275-2.255-.483.474-1.362 1.618-2.515 1.045l.576 5.866s1.572 1.258 6.281 1.258c4.71 0 6.35-1.258 6.35-1.258l.739-6.792c-.6.619-2.494 1.686-2.61.476-.09-.974 2.056-2.376 1.503-2.401l.092-.11zM26.851 1L22.75 5.44 22 8.453c2.9.19 4.918.612 4.918 1.1 0 .665-3.723 1.201-8.313 1.201-4.591 0-8.312-.544-8.312-1.21 0-.664 3.723-1.211 8.313-1.211.652 0 1.302 0 1.95.025l.864-3.61L25.777 0l1.073 1z" fill="#272727"/></svg>