<svg width="20" height="16" viewBox="0 0 20 16" fill="none" xmlns="http://www.w3.org/2000/svg"><path fill-rule="evenodd" clip-rule="evenodd" d="M20 8c0 1.1-.042 2.194-.125 3.275-.058.77-.087 1.154-.277 1.564-.148.319-.46.71-.737.925-.358.277-.706.385-1.403.602A25.059 25.059 0 0110 15.5c-2.566 0-5.053-.39-7.427-1.118-.71-.217-1.064-.326-1.423-.603a2.815 2.815 0 01-.741-.926c-.191-.411-.222-.805-.282-1.593a42.75 42.75 0 01-.003-6.536c.059-.775.088-1.162.28-1.574.148-.32.46-.71.74-.926.359-.277.71-.385 1.414-.602A25.272 25.272 0 0110 .5c2.584 0 5.086.396 7.475 1.14.69.214 1.035.322 1.393.6.276.213.59.608.736.924.19.41.219.788.275 1.542C19.961 5.793 20 6.894 20 8zm-1.25 0c0 1.068-.041 2.13-.12 3.18-.064.832-.09.969-.167 1.134a.851.851 0 01-.05.09l-4.091-4.091 4.244-4.245c.02.155.04.38.067.732A42.55 42.55 0 0118.75 8zm-1.663 5.172l.248-.078-3.897-3.898-.023.023a4.375 4.375 0 01-3.093 1.281h-.644a4.37 4.37 0 01-3.093-1.281l-.022-.023L2.659 13.1l.28.087A24.02 24.02 0 0010 14.25a23.81 23.81 0 007.087-1.078zm-15.501-.767a.806.806 0 01-.044-.08c-.076-.163-.103-.306-.168-1.16a41.502 41.502 0 01-.004-6.346c.027-.358.048-.588.068-.747l4.24 4.24-4.092 4.093zm16.216-9.34A23.811 23.811 0 0010 1.75a24.022 24.022 0 00-7.808 1.308L7.47 8.335c.586.586 1.38.915 2.21.915h.643c.829 0 1.623-.33 2.21-.915l5.27-5.27z" fill="#000"/></svg>