<svg width="20" height="20" viewBox="0 0 20 20" fill="none" xmlns="http://www.w3.org/2000/svg"><path d="M19.88 4.842c-.275-3.023-1.571-3.796-4.192-4.3a30.023 30.023 0 00-11.377 0C1.687 1.046.391 1.817.12 4.847A30.28 30.28 0 000 7.5c0 .855.039 1.746.12 2.656.274 3.024 1.57 3.796 4.193 4.3 1.86.36 3.77.543 5.688.543l5 5.001v-5.444c.228-.038.462-.055.687-.098 2.624-.504 3.92-1.276 4.193-4.306.079-.906.12-1.798.12-2.652 0-.854-.041-1.746-.121-2.658zm-1.245 5.202c-.206 2.27-.901 2.747-3.184 3.186-.149.029-.302.039-.451.065-.412.072-.83.125-1.25.18v3.508l-2.063-2.064-1.193-1.194c-.166.002-.328.024-.494.024-.443 0-.875-.043-1.314-.063-1.406-.063-2.792-.197-4.138-.457-2.283-.439-2.978-.916-3.184-3.186a28.994 28.994 0 01-.115-2.544c0-.858.041-1.707.115-2.544.206-2.27.901-2.747 3.184-3.186a28.687 28.687 0 015.45-.52c1.866 0 3.687.179 5.452.52 2.283.439 2.977.916 3.184 3.186.073.837.115 1.686.115 2.544 0 .857-.04 1.707-.114 2.545zM11.25 7.5a1.25 1.25 0 11-2.5 0 1.25 1.25 0 012.5 0zm-5 0a1.25 1.25 0 11-2.5 0 1.25 1.25 0 012.5 0zm10 0a1.25 1.25 0 11-2.5 0 1.25 1.25 0 012.5 0z" fill="#000"/></svg>