<svg width="20" height="20" viewBox="0 0 20 20" fill="none" xmlns="http://www.w3.org/2000/svg"><path fill-rule="evenodd" clip-rule="evenodd" d="M17.196 1.579c-.429.09-1.175.355-2.278 1.103a.753.753 0 01-.622.103 10.787 10.787 0 00-5.71 0 .753.753 0 01-.622-.103c-1.102-.748-1.85-1.012-2.28-1.103a2.534 2.534 0 00-.116-.021 3.668 3.668 0 00.063 2.208.773.773 0 01-.161.777 3.94 3.94 0 00-1.046 2.734v.012c0 2.174.584 3.3 1.328 3.944.781.675 1.886.953 3.216 1.103a.764.764 0 01.674.762v2.045a.771.771 0 01-.19.509c-.488.556-1.164.69-1.776.66-.605-.03-1.263-.218-1.893-.447a31.838 31.838 0 01-1.838-.76l-.102-.044c-.643-.281-1.244-.54-1.784-.725-.405-.138-.52.083-.533.14-.008.036-.054.528 1.06.978l.017.007c1.636.708 2.488 1.436 3.126 1.982.098.084.192.164.282.238.324.268.582.448.905.572.324.125.764.213 1.46.213h5.327l.001-.038.013-.616a119.98 119.98 0 00.028-2.373 2.105 2.105 0 00-.609-1.643.772.772 0 01-.18-.8.76.76 0 01.64-.507c1.314-.134 2.52-.44 3.396-1.169.837-.697 1.49-1.881 1.49-4.053v-.012a3.94 3.94 0 00-1.047-2.734.773.773 0 01-.163-.77c.24-.713.252-1.48.04-2.194a2.528 2.528 0 00-.116.022zm.645-.783l.231-.73a.762.762 0 01.461.416c.467 1.05.57 2.222.3 3.331A5.483 5.483 0 0120 7.273c0 2.508-.774 4.176-2.041 5.23-.881.734-1.942 1.12-2.988 1.331a3.635 3.635 0 01.292 1.69 123.326 123.326 0 01-.04 2.97c-.008.358-.014.617-.014.74 0 .423-.34.766-.76.766H8.377c-.822 0-1.457-.104-2.002-.314-.547-.21-.953-.51-1.325-.818a25.09 25.09 0 01-.303-.256c-.621-.53-1.318-1.124-2.733-1.738-1.412-.573-2.214-1.616-1.97-2.73.24-1.095 1.39-1.64 2.502-1.26.61.207 1.268.493 1.901.77.03.012.058.025.087.038.615.268 1.208.528 1.764.73.59.214 1.077.34 1.45.358.17.008.29-.007.377-.032v-.977c-1.18-.185-2.395-.539-3.36-1.373-1.187-1.026-1.857-2.65-1.858-5.103A5.484 5.484 0 014.068 3.84 5.216 5.216 0 014.34.488a.762.762 0 01.466-.423l.23.73-.229-.73.002-.001.003-.001.006-.002.014-.004A1.045 1.045 0 014.949.03c.065-.012.148-.023.247-.027.2-.01.464.005.797.075.611.128 1.446.443 2.53 1.14a12.29 12.29 0 015.837 0C15.443.521 16.276.206 16.886.078c.331-.07.595-.085.794-.075a1.86 1.86 0 01.366.054l.014.004.006.002.003.001h.002c0 .001.001.001-.23.732z" fill="#231E1B"/></svg>