<svg width="20" height="18" viewBox="0 0 20 18" fill="none" xmlns="http://www.w3.org/2000/svg"><path fill-rule="evenodd" clip-rule="evenodd" d="M18.607 2.022L2.22 8.841 4.3 9.5c.512.052.767.025.938-.026.183-.055.327-.149.647-.372l.716 1.025-.029.02c-.283.198-.583.408-.978.525-.412.122-.873.131-1.49.064l-.061-.007-2.884-.913-.006-.002-.046-.016a7.165 7.165 0 01-.477-.172 1.334 1.334 0 01-.25-.136.74.74 0 01-.304-.452.705.705 0 01.182-.621c.09-.097.194-.162.266-.203a4.98 4.98 0 01.593-.268L18.159.854l.017-.006c.259-.09.516-.165.747-.18.242-.014.59.035.825.35.188.255.196.56.191.735a5.825 5.825 0 01-.074.681v.003L17.85 15.475c-.054.444-.14.833-.293 1.139-.164.33-.427.604-.822.701-.353.087-.701.001-.984-.105a6.815 6.815 0 01-.934-.463l-.022-.013-5.115-3.497c-.406-.237-.951-.6-1.234-1.09a1.345 1.345 0 01-.162-.994c.085-.364.319-.67.627-.925l6.524-5.54.809.953-6.532 5.547c-.182.15-.208.239-.211.251a.034.034 0 000 .017c.001.009.007.03.028.066.104.181.389.408.8.646l.02.012 5.11 3.493c.308.175.544.297.731.367.121.045.19.057.224.06a.463.463 0 00.024-.042c.058-.118.124-.343.172-.743l.001-.01L18.63 2.247v-.001l.035-.245a4.715 4.715 0 00-.057.02z" fill="#000"/></svg>