<svg width="38" height="38" viewBox="0 0 38 38" fill="none" xmlns="http://www.w3.org/2000/svg"><path fill-rule="evenodd" clip-rule="evenodd" d="M33.349 3.167H4.65c-.82 0-1.484.664-1.484 1.484v28.698c0 .82.664 1.484 1.484 1.484h28.698c.82 0 1.484-.664 1.484-1.484V4.65c0-.82-.664-1.484-1.484-1.484zm-7.3 26.298c-1.377 0-2.753-.498-3.609-.997l-.67 2.992c.819.5 2.456.998 4.093.998 3.98 0 5.803-2.286 5.803-4.987 0-2.286-1.19-3.783-3.72-4.822-1.897-.79-2.678-1.247-2.678-2.286 0-.79.67-1.537 2.083-1.537a6.41 6.41 0 012.976.748l.744-2.91c-.855-.457-2.046-.83-3.683-.83-3.385 0-5.469 2.077-5.469 4.779 0 2.369 1.6 3.865 3.981 4.82 1.749.666 2.418 1.248 2.418 2.245 0 1.08-.781 1.787-2.27 1.787zm-6.634-13.631H16.15l.038 10.337c0 2.49-.863 3.207-2.251 3.207a4.943 4.943 0 01-1.688-.295l-.375 2.995c.637.254 1.613.38 2.4.38 3.152 0 5.14-1.645 5.14-6.287V15.834z" fill="#272727"/></svg>