<svg width="38" height="38" viewBox="0 0 38 38" fill="none" xmlns="http://www.w3.org/2000/svg"><path d="M11.342 18.047c-.099-1.726.242-3.485.095-5.186-1.202 1.338-2.1 3.116-3.638 4.076l.21-.44-.21.132c2.679-4.683 6.516-9.012 9.534-13.599-8.927-.005-14.701 8.6-15.206 16.592l.455-.773c.347.944.149 1.958.46 2.896-.124.01-.206.014-.337.033v.455l-.068.016C.103 15.963 2.34 10.15 7.143 5.595c5.633-5.01 15.58-5.14 21.94-1.433 5.082 3.072 7.7 8.966 7.29 14.804a19.654 19.654 0 01-.544 4.29c-.264 1.036-.962 1.835-.048 2.77.436.765-1.076.173-1.232.745-2.61 5.9-8.228 9.369-14.857 9.645-3.295-.43-6.778-.777-9.669-2.744-1.713-1.154-4.495-2.908-5.005-4.98l.822.67.024-.02c-.275-.6-.783-.95-.765-1.667l.066-.069c.572.99 1.43 1.717 2.304 2.432.787.93 1.932 1.594 3.038 2.165a17.733 17.733 0 007.97 2.517c3.496.057 6.934-.931 9.768-2.997 1.347-.995 2.9-2.004 3.538-3.613.263-.63.85-1.066 1.03-1.768-7.964.088-15.908.899-23.877.763-.515.07-7.031.07-5.626-.804 2.478-.56 5.046-.183 7.566-.331.81-.026.063-1.546.515-2.005l.152.172c.117-.33-.063-.702-.168-1.018-.087-.753.06-1.485.129-2.228-.262.091-.101-2.56-.162-2.844zm8.22-14.975a1674.97 1674.97 0 006.07 8.155c.308.48 1.416-.087 1.461.455-.374 2.081 1.374 3.538 2.335 5.205 1.604 2.089 2.858 4.564 4.553 6.515.735-1.81 1.43-6.605.358-8.332-.281-1.883-.615-3.923-1.883-5.415-1.231-1.364-2.226-2.994-3.789-4.013-2.811-1.556-5.879-2.493-9.106-2.57zm-3.498 12.186c-.919.5-2.804 2.352-2.588 3.535.022.264-.134 1.076-.6.858.543 7.454-1.43 6.327 3.783 6.315-.487-.007-4.607-3.5-3.416-4.059l-.104-.474c.683.73 1.006 1.644 1.73 2.353 2.064 1.835 5.808 1.743 7.716-.26.568-.68 1.062-1.51 1.25-2.38-.152-.16-.011-.278.04-.409.343-.936.506-2.009.343-2.999-.566-2.299-3.25-4.132-5.601-3.696-.241.078-2.023.796-2.553 1.216zm2.242-11.616c-.754.912-1.416 1.888-2.073 2.871-.082.146.005.41-.304.377-.02 0-.065.078-.07.124-1.073 1.706-2.496 3.248-3.659 4.967 3.946.014 7.832-.495 11.773-.401-1.853-2.709-3.537-5.46-5.666-7.938zm9.096 19.712c-.175.345-.513.578-.235.983-.108.717-.527 1.288.621 1.226 1.95-.193 3.912.04 5.846-.202-2.465-2.826-4.28-6.09-6.486-9.107-.123 1.154.035 2.211-.026 3.344-.074.31.191 3.249.28 3.756zm-5.839-10.236l-.038.085c2.063.638 3.27 2.107 4.02 4.11-.199-4.581.865-4.315-3.982-4.195zm.41 12.597c4.758-.243 3.622.869 3.356-3.788-1.543 2.8-1.249 2.112-3.355 3.788h-.001zm-5.81-12.32c-3.915.239-3.098-.698-3.229 3.218.945-1.24 1.908-2.38 3.228-3.219z" fill="#272727"/><path d="M6.738 17.788c.25.51-.088.828-.347 1.007-.22.16-1.126 1.526-1.031.61.416-.578.849-1.13 1.378-1.617z" fill="#272727"/></svg>