<svg width="38" height="38" viewBox="0 0 38 38" fill="none" xmlns="http://www.w3.org/2000/svg"><path d="M18.999 22.7c1.757 0 3.182-1.488 3.182-3.322s-1.425-3.32-3.182-3.32c-1.758 0-3.183 1.486-3.183 3.32 0 1.834 1.425 3.321 3.183 3.321z" fill="#272727"/><path d="M18.999 31.59c2.498 2.536 4.961 4.035 6.946 4.035.65 0 1.266-.142 1.78-.464 1.778-1.071 2.429-3.75 1.813-7.57a24.749 24.749 0 00-.41-2.071c.683-.214 1.3-.428 1.915-.643 3.456-1.392 5.372-3.32 5.372-5.427 0-2.143-1.916-4.071-5.372-5.428a15.235 15.235 0 00-1.916-.643c.171-.714.308-1.392.41-2.07.582-3.893-.068-6.607-1.847-7.678-.513-.321-1.13-.464-1.78-.464-1.95 0-4.448 1.5-6.945 4.035-2.464-2.535-4.928-4.035-6.912-4.035-.65 0-1.267.143-1.78.464-1.779 1.071-2.43 3.75-1.813 7.57.102.679.24 1.357.41 2.071-.684.214-1.3.429-1.916.643-3.456 1.393-5.372 3.32-5.372 5.428 0 2.142 1.916 4.07 5.372 5.427.616.25 1.232.464 1.916.643a24.697 24.697 0 00-.41 2.071c-.582 3.82.068 6.535 1.813 7.57.514.321 1.13.464 1.78.464 1.984.072 4.448-1.428 6.946-3.928zm-1.916-4.82c.615.035 1.266.035 1.916.035.65 0 1.3 0 1.916-.035a33.43 33.43 0 01-1.916 2.392 33.43 33.43 0 01-1.916-2.392zm-4.243-3.678c.342.607.65 1.178 1.026 1.75a35.31 35.31 0 01-3.011-.536c.308-.964.65-1.964 1.06-2.964.274.572.582 1.179.925 1.75zm-1.985-8.606a35.35 35.35 0 013.011-.535 75.566 75.566 0 00-1.026 1.75 22.15 22.15 0 00-.924 1.785 24.536 24.536 0 01-1.061-3zm1.882 4.892a38.36 38.36 0 011.471-2.892c.514-.928 1.095-1.857 1.677-2.785a44.62 44.62 0 013.114-.107c1.095 0 2.121.035 3.114.107a40.047 40.047 0 011.676 2.785 38.36 38.36 0 011.471 2.892 38.36 38.36 0 01-1.47 2.893c-.514.928-1.096 1.856-1.677 2.785a44.62 44.62 0 01-3.114.107 43.43 43.43 0 01-3.114-.107 40.047 40.047 0 01-1.677-2.785 38.36 38.36 0 01-1.471-2.893zm13.379-1.928l-.924-1.785c-.342-.607-.65-1.179-1.026-1.75a35.32 35.32 0 013.01.536c-.307 1-.65 2-1.06 3zm0 3.857c.41 1 .753 2 1.06 2.963-.957.215-1.95.393-3.01.536.342-.571.684-1.143 1.026-1.75.308-.535.616-1.142.924-1.75zm.787 12.39c-.274.179-.616.25-.992.25-1.677 0-3.764-1.428-5.817-3.57.992-1.108 1.95-2.357 2.908-3.75a30.136 30.136 0 004.585-.75c.171.643.274 1.286.377 1.928.479 3.035.102 5.214-1.061 5.892zm1.78-18.818c3.832 1.143 6.124 2.893 6.124 4.5 0 1.392-1.574 2.784-4.346 3.891-.547.215-1.163.429-1.779.608a38.537 38.537 0 00-1.676-4.5c.684-1.535 1.266-3.035 1.676-4.499zM25.944 4.81c.376 0 .684.072.992.25 1.13.679 1.54 2.821 1.06 5.892-.102.607-.239 1.25-.375 1.928a42.698 42.698 0 00-4.586-.75 32.77 32.77 0 00-2.908-3.749c2.053-2.106 4.14-3.57 5.817-3.57zm-5.03 7.178c-.616-.036-1.266-.036-1.916-.036-.65 0-1.3 0-1.916.036a33.435 33.435 0 011.916-2.393c.65.75 1.3 1.572 1.916 2.393zm-9.82-6.928c.273-.178.615-.25.992-.25 1.676 0 3.764 1.429 5.817 3.571-.993 1.107-1.95 2.357-2.909 3.75a30.136 30.136 0 00-4.585.75c-.171-.643-.274-1.286-.376-1.929-.48-3.035-.103-5.177 1.06-5.892zm-1.78 18.819c-3.832-1.143-6.125-2.893-6.125-4.5 0-1.392 1.574-2.785 4.346-3.892a21.082 21.082 0 011.78-.607 38.54 38.54 0 001.676 4.5c-.685 1.535-1.266 3.07-1.677 4.498zm.719 3.927c.102-.607.24-1.25.376-1.928a42.7 42.7 0 004.585.75 32.765 32.765 0 002.909 3.75c-2.053 2.106-4.14 3.57-5.817 3.57-.377 0-.685-.071-.992-.25-1.164-.678-1.54-2.857-1.061-5.892z" fill="#272727"/></svg>