<svg width="38" height="38" viewBox="0 0 38 38" fill="none" xmlns="http://www.w3.org/2000/svg"><path d="M32.144 20.676a7.376 7.376 0 00-3.3.78c-.335-.688-.682-1.288-.739-1.738-.068-.525-.142-.837-.063-1.46.08-.624.438-1.507.433-1.57-.006-.064-.08-.381-.814-.387-.733-.006-1.365.144-1.439.34a7.166 7.166 0 00-.301 1.103c-.131.675-1.468 3.088-2.225 4.346-.25-.49-.46-.923-.506-1.27-.068-.525-.142-.837-.063-1.46.08-.623.439-1.507.433-1.57-.006-.063-.08-.381-.814-.387-.733-.005-1.365.145-1.439.34-.074.197-.153.659-.301 1.103-.148.445-1.929 4.462-2.395 5.507a28.8 28.8 0 01-.592 1.247c-.022.046-.04.075-.051.098.017-.029.029-.058.029-.046-.126.248-.2.386-.2.386v.006c-.096.185-.204.352-.256.352-.034 0-.108-.485.017-1.149.268-1.396.9-3.567.893-3.642-.005-.04.12-.415-.415-.617-.517-.19-.705.127-.75.127-.046 0-.08.115-.08.115s.574-2.447-1.104-2.447c-1.046 0-2.503 1.166-3.22 2.222-.449.248-1.422.785-2.445 1.357-.393.219-.797.444-1.178.658-.029-.03-.051-.058-.08-.087-2.036-2.205-5.796-3.763-5.637-6.725.057-1.079.427-3.913 7.23-7.353 5.575-2.817 10.035-2.043 10.803-.323 1.103 2.453-2.384 7.018-8.175 7.676-2.207.249-3.367-.617-3.657-.94-.302-.34-.348-.358-.461-.295-.188.104-.069.404 0 .583.17.456.881 1.264 2.093 1.668 1.064.352 3.652.549 6.78-.68 3.516-1.375 6.252-5.202 5.45-8.405-.819-3.255-6.137-4.323-11.172-2.51-2.998 1.079-6.24 2.776-8.572 4.986C1.09 13.248.647 15.54.829 16.497c.648 3.4 5.267 5.616 7.116 7.256l-.256.144c-.927.467-4.448 2.338-5.33 4.312-.996 2.24.165 3.844.927 4.063 2.378.67 4.812-.537 6.12-2.516 1.31-1.98 1.15-4.566.547-5.744-.006-.017-.017-.028-.023-.046a79.878 79.878 0 012.065-1.2c-.227.623-.392 1.373-.478 2.459-.102 1.27.416 2.914 1.087 3.56.296.284.654.29.876.29.785 0 1.137-.659 1.53-1.444.483-.958.91-2.072.91-2.072s-.535 3.013.927 3.013c.535 0 1.07-.698 1.309-1.056v.006s.011-.023.04-.07a2.26 2.26 0 00.085-.138v-.017c.216-.375.688-1.236 1.4-2.655.92-1.836 1.802-4.128 1.802-4.128s.08.56.353 1.49c.16.548.495 1.148.762 1.731-.216.3-.347.474-.347.474s0 .005.006.011c-.17.231-.364.48-.563.722-.728.877-1.593 1.881-1.707 2.17-.136.34-.102.594.16.79.193.151.534.174.893.145.654-.046 1.115-.208 1.337-.312a4.654 4.654 0 001.149-.611c.71-.531 1.143-1.293 1.103-2.298-.023-.554-.2-1.108-.415-1.627.062-.093.13-.191.193-.289 1.127-1.668 1.997-3.498 1.997-3.498s.08.56.353 1.49c.136.467.404.98.648 1.483-1.058.871-1.712 1.881-1.94 2.545-.42 1.23-.09 1.784.53 1.91.278.059.676-.074.972-.201a4.49 4.49 0 001.229-.641c.71-.53 1.4-1.276 1.354-2.286-.017-.456-.142-.912-.307-1.35.893-.381 2.053-.59 3.532-.416 3.169.375 3.789 2.384 3.67 3.22-.12.843-.786 1.305-1.008 1.444-.222.138-.29.19-.273.294.029.15.131.145.319.11.262-.046 1.661-.681 1.723-2.234.092-1.963-1.768-4.121-5.062-4.104zm-24.42 8.352c-1.048 1.16-2.515 1.6-3.147 1.23-.677-.398-.41-2.107.882-3.342.785-.75 1.798-1.443 2.469-1.87.154-.093.375-.231.648-.399a.992.992 0 01.069-.04c.05-.035.108-.063.165-.098.472 1.755.017 3.301-1.087 4.52zm7.644-5.275c-.364.906-1.132 3.215-1.598 3.093-.398-.104-.643-1.864-.08-3.596.285-.871.888-1.91 1.246-2.314.575-.652 1.206-.86 1.354-.6.2.34-.694 2.851-.921 3.417zm6.315 3.059c-.154.08-.296.133-.364.092-.052-.029.062-.138.062-.138s.79-.86 1.104-1.253c.182-.23.392-.502.62-.802 0 .028.005.058.005.092-.005 1.033-.983 1.732-1.427 2.009zm4.87-1.126c-.115-.08-.098-.352.284-1.195.148-.329.489-.883 1.08-1.414.069.22.108.427.108.623-.005 1.3-.921 1.784-1.473 1.986z" fill="#272727"/></svg>