<svg width="38" height="38" viewBox="0 0 38 38" fill="none" xmlns="http://www.w3.org/2000/svg"><path d="M33.114 28.002l-13.521 7.623v-5.936l8.424-4.62 5.097 2.933zm.926-.835v-15.94l-4.946 2.848v10.247l4.946 2.845zM4.883 28l13.522 7.624v-5.936l-8.43-4.62-5.092 2.933zm-.926-.834v-15.94l4.946 2.848v10.247l-4.946 2.845zm.58-16.974l13.868-7.818v5.737l-8.886 4.872-.07.04-4.911-2.831zm28.923 0L19.593 2.375v5.737l8.885 4.868.071.04 4.91-2.827zM18.405 28.337L10.09 23.78v-9.024l8.314 4.784v8.798zm1.188 0l8.314-4.554v-9.028l-8.314 4.784v8.798zm-8.94-14.624L19 9.142l8.345 4.571L19 18.514l-8.345-4.801z" fill="#272727"/></svg>