<svg width="38" height="38" viewBox="0 0 38 38" fill="none" xmlns="http://www.w3.org/2000/svg">
<path d="M33.1141 28.0015L19.5926 35.625V29.6888L28.0175 25.0687L33.1141 28.0015ZM34.0404 27.1667V11.2264L29.0944 14.0752V24.3223L34.0404 27.1667ZM4.88329 28.0015L18.4048 35.625V29.6888L9.97547 25.0687L4.88329 28.0015ZM3.95703 27.1667V11.2264L8.90296 14.0752V24.3223L3.95703 27.1667ZM4.5376 10.1928L18.4048 2.375V8.11248L9.51899 12.9843L9.44808 13.024L4.5376 10.1928ZM33.4598 10.1928L19.5926 2.375V8.11248L28.4784 12.9798L28.5493 13.0196L33.4598 10.1928Z" fill="#272727"/>
<path d="M18.4048 28.3372L10.0907 23.779V14.7554L18.4048 19.5388V28.3372ZM19.5926 28.3372L27.9067 23.7834V14.7554L19.5926 19.5388V28.3372ZM10.6535 13.713L18.9987 9.1416L27.3438 13.713L18.9987 18.5141L10.6535 13.713Z" fill="#272727"/>
</svg>
